# xmcd
#
# Track frame offsets: 
#        150
#        19045
#        36990
#        52335
#        69925
#        85722
#        101825
#        117830
#        136470
#        154382
#
# Disc length: 2418 seconds
#
# Revision: 0
# Processed by: cddbd v1.5PL3 Copyright (c) Steve Scherf et al.
# Submitted via: ExactAudioCopy v0.90b4
#
DISCID=8809700a
DTITLE=Ronnie Milsap - Keyed Up
DYEAR=1900
DGENRE=Country
TTITLE0=Stranger In My House
TTITLE1=Show Her
TTITLE2=Don't Your Mem'ry Ever Sleep At Night
TTITLE3=Watch Out For The Other Guy
TTITLE4=I'm Just A Redneck At Heart
TTITLE5=Don't You Know How Much I Love You
TTITLE6=Feelings Change
TTITLE7=Like Children I Have Known
TTITLE8=Is It Over
TTITLE9=We're Here To Love
EXTD=
EXTT0=
EXTT1=
EXTT2=
EXTT3=
EXTT4=
EXTT5=
EXTT6=
EXTT7=
EXTT8=
EXTT9=
PLAYORDER=
